<svg width="100%" height="100%" viewBox="0 0 59 12" fill="none" xmlns="http://www.w3.org/2000/svg">
<path d="M3.024 9.11999C1.32 9.11999 0.395996 7.90799 0.395996 6.01199C0.395996 4.12799 1.308 2.91599 2.952 2.91599C4.008 2.91599 4.644 3.41999 4.908 3.95999H4.944V0.959991H6.228V8.99999H5.04V8.01599H4.992C4.704 8.69999 4.044 9.11999 3.024 9.11999ZM1.692 6.01199C1.692 7.48799 2.16 8.01599 3.312 8.01599C4.368 8.01599 4.944 7.54799 4.944 6.55199V5.48399C4.944 4.48799 4.368 4.01999 3.312 4.01999C2.172 4.01999 1.692 4.54799 1.692 6.01199Z" />
<path d="M8.71518 2.27999H7.43118L7.41918 0.959991H8.71518V2.27999ZM8.72718 8.99999H7.43118V2.99999H8.72718V8.99999Z" />
<path d="M12.1747 8.43599C10.5307 8.43599 9.61865 7.35599 9.61865 5.67599C9.61865 3.99599 10.5427 2.91599 12.2227 2.91599C13.1827 2.91599 13.9267 3.32399 14.2147 4.01999H14.2627V3.03599H15.4507V8.56799C15.4507 10.332 14.4187 11.16 12.6787 11.16C10.9867 11.16 9.93065 10.356 9.93065 8.91599H11.2147C11.2147 9.73199 11.5147 10.008 12.7147 10.008C13.8787 10.008 14.1667 9.67199 14.1667 8.56799V7.37999H14.1187C13.8427 7.95599 13.1467 8.43599 12.1747 8.43599ZM10.9147 5.67599C10.9147 6.89999 11.4187 7.33199 12.5467 7.33199C13.5187 7.33199 14.1667 6.86399 14.1667 5.85599V5.48399C14.1667 4.48799 13.5187 4.01999 12.5227 4.01999C11.4067 4.01999 10.9147 4.45199 10.9147 5.67599Z" />
<path d="M17.9378 2.27999H16.6538L16.6418 0.959991H17.9378V2.27999ZM17.9498 8.99999H16.6538V2.99999H17.9498V8.99999Z" />
<path d="M21.589 8.99999C20.257 8.99999 19.561 8.50799 19.561 7.16399V4.11599H18.565V3.03599H19.585L19.861 1.55999H20.857V3.03599H22.657V4.11599H20.857V7.10399C20.857 7.72799 21.121 7.83599 21.925 7.83599H22.657V8.89199C22.405 8.95199 21.997 8.99999 21.589 8.99999Z" />
<path d="M25.143 9.11999C24.075 9.11999 23.247 8.56799 23.247 7.52399C23.247 6.53999 23.967 6.02399 25.239 5.84399L27.327 5.53199V5.20799C27.327 4.31999 26.919 4.05599 25.983 4.05599C25.035 4.05599 24.663 4.35599 24.663 5.14799V5.32799H23.415V5.20799C23.415 3.87599 24.459 2.91599 26.055 2.91599C27.723 2.91599 28.563 3.92399 28.563 5.37599V8.99999H27.363V8.06399H27.303C26.955 8.62799 26.271 9.11999 25.143 9.11999ZM24.507 7.42799C24.507 7.89599 24.807 8.08799 25.563 8.08799C26.403 8.08799 27.327 7.75199 27.327 6.55199V6.44399L25.431 6.73199C24.747 6.82799 24.507 6.98399 24.507 7.42799Z" />
<path d="M31.1 8.99999H29.804V0.959991H31.1V8.99999Z" />
<path d="M33.7132 8.99999H32.4172V0.959991H33.7132V5.39999H34.8892L36.4852 3.03599H38.0092L35.9332 5.85599L37.9732 8.99999H36.4612L34.9012 6.56399H33.7132V8.99999Z" />
<path d="M40.813 9.11999C39.253 9.11999 38.557 8.07599 38.557 6.71999V3.03599H39.853V6.49199C39.853 7.55999 40.261 8.00399 41.293 8.00399C42.289 8.00399 42.853 7.57199 42.853 6.39599V3.03599H44.149V8.99999H42.949V7.81199H42.901C42.613 8.49599 41.977 9.11999 40.813 9.11999Z" />
<path d="M46.7211 8.99999H45.4251V0.959991H46.7211V8.99999Z" />
<path d="M50.4172 8.99999C49.0852 8.99999 48.3892 8.50799 48.3892 7.16399V4.11599H47.3932V3.03599H48.4132L48.6892 1.55999H49.6852V3.03599H51.4852V4.11599H49.6852V7.10399C49.6852 7.72799 49.9492 7.83599 50.7532 7.83599H51.4852V8.89199C51.2332 8.95199 50.8252 8.99999 50.4172 8.99999Z" />
<path d="M53.6703 8.99999H52.3743V2.99999H53.5623V3.94799H53.6223C53.8623 3.39599 54.4143 2.91599 55.2903 2.91599C56.5383 2.91599 57.0183 3.82799 57.0183 4.94399V5.33999H55.7223V5.09999C55.7223 4.30799 55.4943 4.01999 54.7383 4.01999C53.9583 4.01999 53.6703 4.31999 53.6703 5.11199V8.99999Z" />
<path d="M58.3597 8.99999H56.7157V7.13999H58.3597V8.99999Z" />
</svg>
