<svg width="100%" height="100%" viewBox="0 0 65 13" fill="none" xmlns="http://www.w3.org/2000/svg">
<path d="M9.12677 2.52558C8.88245 2.52558 8.67222 2.44461 8.49609 2.28268C8.31995 2.11791 8.23188 1.92046 8.23188 1.69035C8.23188 1.45739 8.31995 1.25995 8.49609 1.09802C8.67222 0.933247 8.88245 0.850861 9.12677 0.850861C9.37393 0.850861 9.58415 0.933247 9.75745 1.09802C9.93359 1.25995 10.0217 1.45739 10.0217 1.69035C10.0217 1.92046 9.93359 2.11791 9.75745 2.28268C9.58415 2.44461 9.37393 2.52558 9.12677 2.52558Z" />
<path fillRule="evenodd" clipRule="evenodd" d="M3.22158 10.1151C2.70738 10.1151 2.24715 9.98296 1.8409 9.71876C1.43465 9.45455 1.11363 9.07103 0.877833 8.56819C0.642037 8.06535 0.524139 7.45455 0.524139 6.7358C0.524139 6.00853 0.643458 5.39489 0.882094 4.89489C1.12357 4.39205 1.44886 4.01279 1.85795 3.75711C2.26704 3.49859 2.723 3.36933 3.22584 3.36933C3.60937 3.36933 3.92471 3.43467 4.17187 3.56535C4.41903 3.69319 4.61505 3.84802 4.75993 4.02984C4.90482 4.20882 5.01704 4.37785 5.09658 4.53694H5.1605V1.27274H6.70738V10H5.19033V8.96876H5.09658C5.01704 9.12785 4.90198 9.29688 4.75141 9.47586C4.60084 9.652 4.40198 9.80257 4.15482 9.92757C3.90766 10.0526 3.59658 10.1151 3.22158 10.1151ZM3.65198 8.84944C3.97868 8.84944 4.25709 8.76137 4.48721 8.58524C4.71732 8.40626 4.89204 8.15768 5.01136 7.8395C5.13067 7.52132 5.19033 7.15058 5.19033 6.72728C5.19033 6.30399 5.13067 5.93609 5.01136 5.62359C4.89488 5.31109 4.72158 5.06819 4.49147 4.89489C4.2642 4.7216 3.98437 4.63495 3.65198 4.63495C3.30823 4.63495 3.0213 4.72444 2.79118 4.90342C2.56107 5.0824 2.38778 5.32955 2.2713 5.64489C2.15482 5.96024 2.09658 6.32103 2.09658 6.72728C2.09658 7.13637 2.15482 7.50143 2.2713 7.82245C2.39062 8.14063 2.56533 8.39205 2.79545 8.57671C3.0284 8.75853 3.31391 8.84944 3.65198 8.84944Z" />
<path fillRule="evenodd" clipRule="evenodd" d="M12.8991 12.3651C13.2969 12.5156 13.7727 12.5909 14.3267 12.5909C14.9148 12.5909 15.4403 12.5 15.9034 12.3182C16.3665 12.1364 16.7315 11.8622 16.9986 11.4957C17.2656 11.1293 17.3991 10.6662 17.3991 10.1065V3.45455H15.8778V4.53694H15.7926C15.7159 4.37785 15.6037 4.20882 15.456 4.02984C15.3082 3.84802 15.1094 3.69319 14.8594 3.56535C14.6122 3.43467 14.2969 3.36933 13.9133 3.36933C13.4105 3.36933 12.9545 3.49859 12.5454 3.75711C12.1364 4.01279 11.8111 4.38921 11.5696 4.88637C11.331 5.38069 11.2116 5.98722 11.2116 6.70597C11.2116 7.41904 11.331 8.01279 11.5696 8.48722C11.8111 8.95882 12.1349 9.31393 12.5412 9.55257C12.9503 9.78836 13.4062 9.90626 13.9091 9.90626C14.2841 9.90626 14.5952 9.84944 14.8423 9.7358C15.0923 9.62217 15.2926 9.48154 15.4432 9.31393C15.5966 9.14631 15.7131 8.98296 15.7926 8.82387H15.8693V10.0639C15.8693 10.5469 15.7258 10.8935 15.4389 11.1037C15.152 11.3168 14.7898 11.4233 14.3523 11.4233C14.0426 11.4233 13.7855 11.3807 13.581 11.2955C13.3793 11.2131 13.2187 11.108 13.0994 10.9801C12.9801 10.8551 12.8892 10.7287 12.8267 10.6009L11.4375 10.9375C11.5312 11.2415 11.6989 11.5185 11.9403 11.7685C12.1818 12.0185 12.5014 12.2173 12.8991 12.3651ZM15.1747 8.4574C14.9446 8.61649 14.6662 8.69603 14.3395 8.69603C14.0014 8.69603 13.7159 8.61365 13.4829 8.44887C13.2528 8.28126 13.0781 8.0483 12.9588 7.75001C12.8423 7.44887 12.7841 7.09802 12.7841 6.69745C12.7841 6.30257 12.8423 5.95029 12.9588 5.64063C13.0753 5.32813 13.2486 5.0824 13.4787 4.90342C13.7088 4.72444 13.9957 4.63495 14.3395 4.63495C14.6719 4.63495 14.9517 4.7216 15.179 4.89489C15.4091 5.06535 15.5824 5.30541 15.6989 5.61507C15.8182 5.92472 15.8778 6.28552 15.8778 6.69745C15.8778 7.11507 15.8182 7.47302 15.6989 7.77132C15.5795 8.06961 15.4048 8.2983 15.1747 8.4574Z" />
<path d="M19.7557 2.52558C19.5114 2.52558 19.3011 2.44461 19.125 2.28268C18.9489 2.11791 18.8608 1.92046 18.8608 1.69035C18.8608 1.45739 18.9489 1.25995 19.125 1.09802C19.3011 0.933247 19.5114 0.850861 19.7557 0.850861C20.0028 0.850861 20.2131 0.933247 20.3864 1.09802C20.5625 1.25995 20.6506 1.45739 20.6506 1.69035C20.6506 1.92046 20.5625 2.11791 20.3864 2.28268C20.2131 2.44461 20.0028 2.52558 19.7557 2.52558Z" />
<path d="M24.18 8.50853C24.1175 8.39774 24.0863 8.23865 24.0863 8.03126V4.64774H25.3775V3.45455H24.0863V1.88637H22.5437V3.45455H21.6147V4.64774H22.5437V8.28694C22.5408 8.69603 22.6289 9.03694 22.8079 9.30967C22.9897 9.58239 23.2354 9.7841 23.5451 9.91478C23.8548 10.0426 24.2028 10.1009 24.5891 10.0895C24.8079 10.0838 24.9925 10.0639 25.1431 10.0298C25.2965 9.99575 25.4144 9.9645 25.4968 9.93609L25.2369 8.73012C25.1942 8.74149 25.1317 8.75427 25.0494 8.76847C24.9698 8.78268 24.8817 8.78978 24.7851 8.78978C24.6573 8.78978 24.5408 8.76989 24.4357 8.73012C24.3306 8.69035 24.2454 8.61649 24.18 8.50853Z" />
<path fillRule="evenodd" clipRule="evenodd" d="M28.5511 10.1321C28.1364 10.1321 27.7628 10.0582 27.4304 9.91052C27.1008 9.75995 26.8395 9.53836 26.6463 9.24575C26.456 8.95313 26.3608 8.59234 26.3608 8.16336C26.3608 7.79404 26.429 7.48865 26.5653 7.24717C26.7017 7.00569 26.8878 6.81251 27.1236 6.66762C27.3594 6.52274 27.625 6.41336 27.9204 6.3395C28.2187 6.26279 28.527 6.20739 28.8452 6.1733C29.2287 6.13353 29.5398 6.09802 29.7784 6.06677C30.017 6.03268 30.1903 5.98154 30.2983 5.91336C30.4091 5.84234 30.4645 5.73296 30.4645 5.58524V5.55967C30.4645 5.23864 30.3693 4.99007 30.179 4.81393C29.9886 4.63779 29.7145 4.54972 29.3565 4.54972C28.9787 4.54972 28.679 4.63211 28.4574 4.79688C28.2386 4.96166 28.0909 5.15626 28.0142 5.38069L26.5739 5.17614C26.6875 4.77842 26.875 4.44603 27.1364 4.17899C27.3977 3.9091 27.7173 3.70739 28.0952 3.57387C28.473 3.43751 28.8906 3.36933 29.348 3.36933C29.6633 3.36933 29.9773 3.40626 30.2898 3.48012C30.6023 3.55399 30.8878 3.67614 31.1463 3.8466C31.4048 4.01421 31.6122 4.24291 31.7685 4.53268C31.9275 4.82245 32.0071 5.18467 32.0071 5.61933V10H30.5241V9.10086H30.473C30.3793 9.28268 30.2472 9.45313 30.0767 9.61222C29.9091 9.76847 29.6974 9.89489 29.4418 9.99149C29.1889 10.0852 28.892 10.1321 28.5511 10.1321ZM28.9517 8.99859C29.2614 8.99859 29.5298 8.93751 29.7571 8.81535C29.9844 8.69035 30.1591 8.52558 30.2812 8.32103C30.4062 8.11649 30.4687 7.89347 30.4687 7.652V6.88069C30.4204 6.92046 30.3381 6.95739 30.2216 6.99149C30.1079 7.02558 29.9801 7.05541 29.8381 7.08097C29.696 7.10654 29.5554 7.12927 29.4162 7.14916C29.277 7.16904 29.1562 7.18609 29.054 7.20029C28.8239 7.23154 28.6179 7.28268 28.4361 7.3537C28.2543 7.42472 28.1108 7.52416 28.0057 7.652C27.9006 7.777 27.848 7.93893 27.848 8.13779C27.848 8.42188 27.9517 8.63637 28.1591 8.78126C28.3665 8.92614 28.6307 8.99859 28.9517 8.99859Z" />
<path d="M40.6886 3.45455L38.3363 6.08382H38.2298V1.27274H36.6871V10H38.2298V7.79986L38.791 7.19826L40.7951 10H42.6403L39.9535 6.27991L42.4911 3.45455H40.6886Z" />
<path d="M46.941 9.7358C47.2791 9.50285 47.522 9.20313 47.6697 8.83666H47.7379V10H49.2337V3.45455H47.691V7.24717C47.691 7.57955 47.6214 7.85654 47.4822 8.07813C47.3459 8.29688 47.1712 8.46166 46.9581 8.57245C46.745 8.68325 46.5248 8.73865 46.2976 8.73865C45.9283 8.73865 45.63 8.61649 45.4027 8.37217C45.1754 8.12785 45.0618 7.7983 45.0618 7.38353V3.45455H43.5192V7.62217C43.5192 8.1449 43.6115 8.59092 43.7962 8.96024C43.9808 9.32671 44.2365 9.60654 44.5632 9.79972C44.8927 9.99007 45.272 10.0852 45.701 10.0852C46.1925 10.0852 46.6058 9.96876 46.941 9.7358Z" />
<path d="M56.0199 8.50853C55.9574 8.39774 55.9261 8.23865 55.9261 8.03126V4.64774H57.2173V3.45455H55.9261V1.88637H54.3835V3.45455H53.4545V4.64774H54.3835V8.28694C54.3807 8.69603 54.4687 9.03694 54.6477 9.30967C54.8295 9.58239 55.0753 9.7841 55.3849 9.91478C55.6946 10.0426 56.0426 10.1009 56.429 10.0895C56.6477 10.0838 56.8324 10.0639 56.9829 10.0298C57.1364 9.99575 57.2543 9.9645 57.3366 9.93609L57.0767 8.73012C57.0341 8.74149 56.9716 8.75427 56.8892 8.76847C56.8097 8.78268 56.7216 8.78978 56.625 8.78978C56.4972 8.78978 56.3807 8.76989 56.2756 8.73012C56.1704 8.69035 56.0852 8.61649 56.0199 8.50853Z" />
<path d="M60.2418 5.41478C60.114 5.62785 60.0501 5.87359 60.0501 6.152V10H58.5075V3.45455H60.0032V4.54546H60.0714C60.1907 4.16762 60.3952 3.87643 60.685 3.67188C60.9776 3.4645 61.3114 3.3608 61.6864 3.3608C61.7717 3.3608 61.8668 3.36507 61.9719 3.37359C62.0799 3.37927 62.1694 3.38921 62.2404 3.40342V4.82245C62.1751 4.79972 62.0714 4.77984 61.9293 4.76279C61.7901 4.74291 61.6552 4.73296 61.5245 4.73296C61.2432 4.73296 60.9904 4.79404 60.766 4.9162C60.5444 5.03552 60.3697 5.20171 60.2418 5.41478Z" />
<path d="M62.8008 9.82103C62.9854 10.0028 63.207 10.0938 63.4655 10.0938C63.6332 10.0938 63.7866 10.0526 63.9258 9.97018C64.0678 9.88495 64.1815 9.77131 64.2667 9.62927C64.3548 9.48722 64.4002 9.32955 64.403 9.15626C64.4002 8.90058 64.305 8.68183 64.1175 8.50001C63.9329 8.31819 63.7155 8.22728 63.4655 8.22728C63.207 8.22728 62.9854 8.31819 62.8008 8.50001C62.6161 8.68183 62.5252 8.90058 62.528 9.15626C62.5252 9.41762 62.6161 9.63921 62.8008 9.82103Z" />
<path d="M8.3512 3.45455H9.89381V10H8.3512V3.45455Z" />
<path d="M18.9801 3.45455H20.5227V10H18.9801V3.45455Z" />
<path d="M35.1008 10V1.27274H33.5582V10H35.1008Z" />
<path d="M52.3626 1.27274V10H50.82V1.27274H52.3626Z" />
</svg>
