<svg width="16" height="16" viewBox="0 0 16 16" fill="none" xmlns="http://www.w3.org/2000/svg">
<path fill-rule="evenodd" clip-rule="evenodd" d="M3.07205 13C2.4787 13 1.94914 12.8476 1.48339 12.5428C1.02083 12.2348 0.657158 11.7969 0.392381 11.2291C0.130794 10.658 0 9.97305 0 9.17421C0 8.37536 0.132389 7.69201 0.397166 7.12416C0.665133 6.5563 1.03199 6.12159 1.49775 5.82002C1.9635 5.51845 2.49146 5.36766 3.08163 5.36766C3.53781 5.36766 3.90467 5.44466 4.18221 5.59865C4.46293 5.74944 4.67986 5.92589 4.83298 6.12801C4.9893 6.33012 5.11052 6.50818 5.19665 6.66218H5.28279V3H6.71354V12.8556H5.31628V11.7055H5.19665C5.11052 11.8627 4.98611 12.0423 4.82341 12.2445C4.66391 12.4466 4.44379 12.623 4.16307 12.7738C3.88234 12.9246 3.51867 13 3.07205 13ZM3.38787 11.7729C3.7994 11.7729 4.14711 11.6638 4.43103 11.4456C4.71814 11.2243 4.93507 10.9179 5.08181 10.5265C5.23174 10.1351 5.30671 9.6795 5.30671 9.15977C5.30671 8.64645 5.23334 8.1973 5.0866 7.81232C4.93985 7.42733 4.72452 7.12737 4.4406 6.91242C4.15669 6.69747 3.80578 6.58999 3.38787 6.58999C2.95721 6.58999 2.59833 6.70228 2.31122 6.92685C2.02411 7.15143 1.80718 7.45781 1.66044 7.84601C1.51689 8.2342 1.44511 8.67212 1.44511 9.15977C1.44511 9.65383 1.51848 10.0982 1.66523 10.4928C1.81197 10.8874 2.0289 11.2002 2.316 11.4312C2.6063 11.659 2.96359 11.7729 3.38787 11.7729Z" fill="white"/>
<path d="M12.1613 5.46391L9.23277 8.59192H9.10836V3H7.6776V12.8556H9.10836V10.2329L9.81895 9.51829L12.3192 12.8556H14.0753L10.8987 8.63652L13.8743 5.46391H12.1613Z" fill="white"/>
<path d="M14.3683 12.6679C14.5565 12.854 14.7814 12.9471 15.043 12.9471C15.2184 12.9471 15.3779 12.9038 15.5215 12.8171C15.665 12.7305 15.7799 12.615 15.866 12.4706C15.9553 12.3231 16 12.1611 16 11.9846C16 11.7215 15.9059 11.497 15.7177 11.3109C15.5295 11.1216 15.3046 11.0269 15.043 11.0269C14.7814 11.0269 14.5565 11.1216 14.3683 11.3109C14.1801 11.497 14.0859 11.7215 14.0859 11.9846C14.0859 12.2509 14.1801 12.4787 14.3683 12.6679Z" fill="white"/>
</svg>
