<svg width="16" height="16" viewBox="0 0 16 16" fill="none" xmlns="http://www.w3.org/2000/svg">
<path d="M7.048 12.696H5.044V11.58C4.504 12.348 3.928 12.816 3.172 12.816C1.948 12.816 1 11.616 1 9.624C1 7.428 2.308 6.096 3.748 6.096C4.252 6.096 4.744 6.252 5.044 6.432V4.932C5.044 4.152 4.756 4.068 3.916 4.068V3.84C4.852 3.84 5.404 3.564 6.052 3L6.148 3.06V11.112C6.148 12.372 6.196 12.384 7.048 12.468V12.696ZM3.532 12.264C4.168 12.264 4.78 11.7 5.044 10.548V8.124C5.044 6.9 4.3 6.48 3.688 6.48C2.764 6.48 2.188 7.428 2.188 9.48C2.188 11.328 2.716 12.264 3.532 12.264Z" fill="white"/>
<path d="M10.2245 12.468V12.696H7.21253V12.468C8.18453 12.396 8.22053 12.372 8.22053 11.112V4.932C8.22053 4.152 7.93253 4.068 7.09253 4.068V3.84C8.02853 3.84 8.58053 3.564 9.22853 3L9.32453 3.06V9.012L10.3085 8.04C11.3045 7.056 11.4965 6.636 10.7525 6.564V6.336H12.9845V6.564C12.3005 6.648 11.8805 6.876 11.2805 7.5L10.4765 8.328L12.1085 11.112C12.7565 12.216 12.9005 12.468 13.4285 12.468V12.696H11.5925L9.69653 9.132L9.32453 9.504V11.112C9.32453 12.372 9.37253 12.384 10.2245 12.468Z" fill="white"/>
<path d="M14.3099 12.816C13.8059 12.816 13.3859 12.432 13.3859 11.904C13.3859 11.388 13.8059 10.968 14.3099 10.968C14.8259 10.968 15.2339 11.388 15.2339 11.904C15.2339 12.432 14.8259 12.816 14.3099 12.816Z" fill="white"/>
</svg>
